<svg xmlns="http://www.w3.org/2000/svg" viewBox="0 0 1000 1000">
  <g fill="rgb(37, 67, 149)">
<path d="M500,500 L1500,500 L1489,604 Z" />
<path d="M500,500 L1457,707 L1406,806 Z" />
<path d="M500,500 L1336,898 L1250,982 Z" />
<path d="M500,500 L1148,1053 L1035,1112 Z" />
<path d="M500,500 L909,1153 L776,1176 Z" />
<path d="M500,500 L638,1179 L500,1162 Z" />
<path d="M500,500 L362,1124 L232,1065 Z" />
<path d="M500,500 L115,984 L17,885 Z" />
<path d="M500,500 L-59,770 L-115,644 Z" />
<path d="M500,500 L-148,510 L-159,373 Z" />
<path d="M500,500 L-148,237 L-114,105 Z" />
<path d="M500,500 L-58,-19 L21,-132 Z" />
<path d="M500,500 L121,-229 L237,-307 Z" />
<path d="M500,500 L367,-364 L506,-400 Z" />
<path d="M500,500 L648,-411 L787,-398 Z" />
<path d="M500,500 L921,-359 L1047,-297 Z" />
<path d="M500,500 L1160,-214 L1257,-113 Z" />
<path d="M500,500 L1336,4 L1391,128 Z" />
<path d="M500,500 L1425,257 L1436,393 Z" />
<path d="M500,500 L1425,528 L1391,657 Z" />
<path d="M500,500 L1336,781 L1258,895 Z" />
<path d="M500,500 L1161,996 L1048,1082 Z" />
<path d="M500,500 L921,1149 L783,1194 Z" />
<path d="M500,500 L643,1217 L500,1212 Z" />
<path d="M500,500 L357,1184 L222,1134 Z" />
<path d="M500,500 L103,1062 L1,972 Z" />
<path d="M500,500 L-77,865 L-129,747 Z" />
<path d="M500,500 L-156,620 L-157,489 Z" />
<path d="M500,500 L-134,354 L-86,230 Z" />
<path d="M500,500 L-13,119 L80,24 Z" />
  </g>
</svg>
